<mxfile host="app.diagrams.net" modified="2022-11-24T07:00:46.518Z" agent="5.0 (Macintosh; Intel Mac OS X 10_15_7) AppleWebKit/605.1.15 (KHTML, like Gecko) Version/16.1 Safari/605.1.15" etag="Vx4CQssW_Wq4s65_Mv8i" version="20.5.3" type="github">
  <diagram id="OffFVsL1G_vX2z-3k08u" name="Seite-1">
    <mxGraphModel dx="984" dy="483" grid="1" gridSize="10" guides="1" tooltips="1" connect="1" arrows="1" fold="1" page="1" pageScale="1" pageWidth="827" pageHeight="1169" math="0" shadow="0">
      <root>
        <mxCell id="0" />
        <mxCell id="1" parent="0" />
        <mxCell id="dX2n7vGCm40rp93v6ol--3" value="" style="edgeStyle=orthogonalEdgeStyle;rounded=0;orthogonalLoop=1;jettySize=auto;html=1;entryX=0.5;entryY=0;entryDx=0;entryDy=0;" edge="1" parent="1" source="dX2n7vGCm40rp93v6ol--1" target="dX2n7vGCm40rp93v6ol--5">
          <mxGeometry relative="1" as="geometry">
            <mxPoint x="289.48275862068976" y="80" as="targetPoint" />
            <Array as="points">
              <mxPoint x="400" y="60" />
              <mxPoint x="320" y="60" />
            </Array>
          </mxGeometry>
        </mxCell>
        <mxCell id="dX2n7vGCm40rp93v6ol--7" style="edgeStyle=orthogonalEdgeStyle;rounded=0;orthogonalLoop=1;jettySize=auto;html=1;entryX=0.5;entryY=0;entryDx=0;entryDy=0;" edge="1" parent="1" source="dX2n7vGCm40rp93v6ol--1" target="dX2n7vGCm40rp93v6ol--6">
          <mxGeometry relative="1" as="geometry" />
        </mxCell>
        <mxCell id="dX2n7vGCm40rp93v6ol--1" value="RL Algorithms" style="rounded=1;whiteSpace=wrap;html=1;" vertex="1" parent="1">
          <mxGeometry x="340" width="120" height="40" as="geometry" />
        </mxCell>
        <mxCell id="dX2n7vGCm40rp93v6ol--12" style="edgeStyle=orthogonalEdgeStyle;rounded=0;orthogonalLoop=1;jettySize=auto;html=1;" edge="1" parent="1" source="dX2n7vGCm40rp93v6ol--5" target="dX2n7vGCm40rp93v6ol--8">
          <mxGeometry relative="1" as="geometry">
            <Array as="points">
              <mxPoint x="320" y="140" />
              <mxPoint x="90" y="140" />
            </Array>
          </mxGeometry>
        </mxCell>
        <mxCell id="dX2n7vGCm40rp93v6ol--13" style="edgeStyle=orthogonalEdgeStyle;rounded=0;orthogonalLoop=1;jettySize=auto;html=1;entryX=0.5;entryY=0;entryDx=0;entryDy=0;" edge="1" parent="1" source="dX2n7vGCm40rp93v6ol--5" target="dX2n7vGCm40rp93v6ol--9">
          <mxGeometry relative="1" as="geometry" />
        </mxCell>
        <mxCell id="dX2n7vGCm40rp93v6ol--5" value="Model-Based" style="rounded=1;whiteSpace=wrap;html=1;" vertex="1" parent="1">
          <mxGeometry x="260" y="80" width="120" height="40" as="geometry" />
        </mxCell>
        <mxCell id="dX2n7vGCm40rp93v6ol--14" style="edgeStyle=orthogonalEdgeStyle;rounded=0;orthogonalLoop=1;jettySize=auto;html=1;entryX=0.5;entryY=0;entryDx=0;entryDy=0;" edge="1" parent="1" source="dX2n7vGCm40rp93v6ol--6" target="dX2n7vGCm40rp93v6ol--11">
          <mxGeometry relative="1" as="geometry">
            <Array as="points">
              <mxPoint x="480" y="140" />
              <mxPoint x="710" y="140" />
            </Array>
          </mxGeometry>
        </mxCell>
        <mxCell id="dX2n7vGCm40rp93v6ol--15" style="edgeStyle=orthogonalEdgeStyle;rounded=0;orthogonalLoop=1;jettySize=auto;html=1;" edge="1" parent="1" source="dX2n7vGCm40rp93v6ol--6" target="dX2n7vGCm40rp93v6ol--10">
          <mxGeometry relative="1" as="geometry" />
        </mxCell>
        <mxCell id="dX2n7vGCm40rp93v6ol--6" value="Model-Free" style="rounded=1;whiteSpace=wrap;html=1;" vertex="1" parent="1">
          <mxGeometry x="420" y="80" width="120" height="40" as="geometry" />
        </mxCell>
        <mxCell id="dX2n7vGCm40rp93v6ol--18" style="edgeStyle=orthogonalEdgeStyle;rounded=0;orthogonalLoop=1;jettySize=auto;html=1;entryX=0;entryY=0.5;entryDx=0;entryDy=0;" edge="1" parent="1" source="dX2n7vGCm40rp93v6ol--8" target="dX2n7vGCm40rp93v6ol--16">
          <mxGeometry relative="1" as="geometry">
            <Array as="points">
              <mxPoint x="30" y="235" />
            </Array>
          </mxGeometry>
        </mxCell>
        <mxCell id="dX2n7vGCm40rp93v6ol--19" style="edgeStyle=orthogonalEdgeStyle;rounded=0;orthogonalLoop=1;jettySize=auto;html=1;entryX=0;entryY=0.5;entryDx=0;entryDy=0;exitX=0;exitY=0.5;exitDx=0;exitDy=0;" edge="1" parent="1" source="dX2n7vGCm40rp93v6ol--8" target="dX2n7vGCm40rp93v6ol--17">
          <mxGeometry relative="1" as="geometry">
            <Array as="points">
              <mxPoint x="30" y="275" />
            </Array>
          </mxGeometry>
        </mxCell>
        <mxCell id="dX2n7vGCm40rp93v6ol--8" value="Given Model" style="rounded=1;whiteSpace=wrap;html=1;" vertex="1" parent="1">
          <mxGeometry x="30" y="160" width="120" height="40" as="geometry" />
        </mxCell>
        <mxCell id="dX2n7vGCm40rp93v6ol--22" style="edgeStyle=orthogonalEdgeStyle;rounded=0;orthogonalLoop=1;jettySize=auto;html=1;entryX=0;entryY=0.5;entryDx=0;entryDy=0;exitX=0;exitY=0.5;exitDx=0;exitDy=0;" edge="1" parent="1" source="dX2n7vGCm40rp93v6ol--9" target="dX2n7vGCm40rp93v6ol--20">
          <mxGeometry relative="1" as="geometry">
            <Array as="points">
              <mxPoint x="190" y="235" />
            </Array>
          </mxGeometry>
        </mxCell>
        <mxCell id="dX2n7vGCm40rp93v6ol--23" style="edgeStyle=orthogonalEdgeStyle;rounded=0;orthogonalLoop=1;jettySize=auto;html=1;entryX=0;entryY=0.5;entryDx=0;entryDy=0;" edge="1" parent="1" source="dX2n7vGCm40rp93v6ol--9" target="dX2n7vGCm40rp93v6ol--21">
          <mxGeometry relative="1" as="geometry">
            <Array as="points">
              <mxPoint x="190" y="275" />
            </Array>
          </mxGeometry>
        </mxCell>
        <mxCell id="dX2n7vGCm40rp93v6ol--9" value="Learn Model" style="rounded=1;whiteSpace=wrap;html=1;" vertex="1" parent="1">
          <mxGeometry x="190" y="160" width="120" height="40" as="geometry" />
        </mxCell>
        <mxCell id="dX2n7vGCm40rp93v6ol--30" style="edgeStyle=orthogonalEdgeStyle;rounded=0;orthogonalLoop=1;jettySize=auto;html=1;" edge="1" parent="1" source="dX2n7vGCm40rp93v6ol--10" target="dX2n7vGCm40rp93v6ol--25">
          <mxGeometry relative="1" as="geometry">
            <Array as="points">
              <mxPoint x="550" y="210" />
              <mxPoint x="505" y="210" />
            </Array>
          </mxGeometry>
        </mxCell>
        <mxCell id="dX2n7vGCm40rp93v6ol--31" style="edgeStyle=orthogonalEdgeStyle;rounded=0;orthogonalLoop=1;jettySize=auto;html=1;" edge="1" parent="1" source="dX2n7vGCm40rp93v6ol--10" target="dX2n7vGCm40rp93v6ol--24">
          <mxGeometry relative="1" as="geometry">
            <Array as="points">
              <mxPoint x="550" y="210" />
              <mxPoint x="375" y="210" />
            </Array>
          </mxGeometry>
        </mxCell>
        <mxCell id="dX2n7vGCm40rp93v6ol--10" value="Value-Based" style="rounded=1;whiteSpace=wrap;html=1;" vertex="1" parent="1">
          <mxGeometry x="490" y="160" width="120" height="40" as="geometry" />
        </mxCell>
        <mxCell id="dX2n7vGCm40rp93v6ol--32" style="edgeStyle=orthogonalEdgeStyle;rounded=0;orthogonalLoop=1;jettySize=auto;html=1;" edge="1" parent="1" source="dX2n7vGCm40rp93v6ol--11" target="dX2n7vGCm40rp93v6ol--28">
          <mxGeometry relative="1" as="geometry">
            <Array as="points">
              <mxPoint x="710" y="210" />
              <mxPoint x="635" y="210" />
            </Array>
          </mxGeometry>
        </mxCell>
        <mxCell id="dX2n7vGCm40rp93v6ol--33" style="edgeStyle=orthogonalEdgeStyle;rounded=0;orthogonalLoop=1;jettySize=auto;html=1;" edge="1" parent="1" source="dX2n7vGCm40rp93v6ol--11" target="dX2n7vGCm40rp93v6ol--29">
          <mxGeometry relative="1" as="geometry">
            <Array as="points">
              <mxPoint x="710" y="210" />
              <mxPoint x="765" y="210" />
            </Array>
          </mxGeometry>
        </mxCell>
        <mxCell id="dX2n7vGCm40rp93v6ol--11" value="Policy-Based" style="rounded=1;whiteSpace=wrap;html=1;" vertex="1" parent="1">
          <mxGeometry x="650" y="160" width="120" height="40" as="geometry" />
        </mxCell>
        <mxCell id="dX2n7vGCm40rp93v6ol--16" value="AlphaGo" style="rounded=0;whiteSpace=wrap;html=1;" vertex="1" parent="1">
          <mxGeometry x="40" y="220" width="100" height="30" as="geometry" />
        </mxCell>
        <mxCell id="dX2n7vGCm40rp93v6ol--17" value="AlphaZero" style="rounded=0;whiteSpace=wrap;html=1;" vertex="1" parent="1">
          <mxGeometry x="40" y="260" width="100" height="30" as="geometry" />
        </mxCell>
        <mxCell id="dX2n7vGCm40rp93v6ol--20" value="I2A" style="rounded=0;whiteSpace=wrap;html=1;" vertex="1" parent="1">
          <mxGeometry x="200" y="220" width="100" height="30" as="geometry" />
        </mxCell>
        <mxCell id="dX2n7vGCm40rp93v6ol--21" value="World Model" style="rounded=0;whiteSpace=wrap;html=1;" vertex="1" parent="1">
          <mxGeometry x="200" y="260" width="100" height="30" as="geometry" />
        </mxCell>
        <mxCell id="dX2n7vGCm40rp93v6ol--38" style="edgeStyle=orthogonalEdgeStyle;rounded=0;orthogonalLoop=1;jettySize=auto;html=1;entryX=0;entryY=0.5;entryDx=0;entryDy=0;exitX=0;exitY=0.5;exitDx=0;exitDy=0;" edge="1" parent="1" source="dX2n7vGCm40rp93v6ol--24" target="dX2n7vGCm40rp93v6ol--34">
          <mxGeometry relative="1" as="geometry">
            <Array as="points">
              <mxPoint x="320" y="295" />
            </Array>
          </mxGeometry>
        </mxCell>
        <mxCell id="dX2n7vGCm40rp93v6ol--24" value="On-Policy" style="rounded=1;whiteSpace=wrap;html=1;" vertex="1" parent="1">
          <mxGeometry x="320" y="220" width="110" height="40" as="geometry" />
        </mxCell>
        <mxCell id="dX2n7vGCm40rp93v6ol--40" style="edgeStyle=orthogonalEdgeStyle;rounded=0;orthogonalLoop=1;jettySize=auto;html=1;entryX=0;entryY=0.5;entryDx=0;entryDy=0;" edge="1" parent="1" source="dX2n7vGCm40rp93v6ol--25" target="dX2n7vGCm40rp93v6ol--37">
          <mxGeometry relative="1" as="geometry">
            <Array as="points">
              <mxPoint x="450" y="335" />
            </Array>
          </mxGeometry>
        </mxCell>
        <mxCell id="dX2n7vGCm40rp93v6ol--41" style="edgeStyle=orthogonalEdgeStyle;rounded=0;orthogonalLoop=1;jettySize=auto;html=1;entryX=0;entryY=0.5;entryDx=0;entryDy=0;exitX=0;exitY=0.5;exitDx=0;exitDy=0;" edge="1" parent="1" source="dX2n7vGCm40rp93v6ol--25" target="dX2n7vGCm40rp93v6ol--36">
          <mxGeometry relative="1" as="geometry">
            <Array as="points">
              <mxPoint x="450" y="295" />
            </Array>
          </mxGeometry>
        </mxCell>
        <mxCell id="dX2n7vGCm40rp93v6ol--25" value="Off-Policy" style="rounded=1;whiteSpace=wrap;html=1;" vertex="1" parent="1">
          <mxGeometry x="450" y="220" width="110" height="40" as="geometry" />
        </mxCell>
        <mxCell id="dX2n7vGCm40rp93v6ol--46" style="edgeStyle=orthogonalEdgeStyle;rounded=0;orthogonalLoop=1;jettySize=auto;html=1;entryX=0;entryY=0.5;entryDx=0;entryDy=0;exitX=0;exitY=0.5;exitDx=0;exitDy=0;" edge="1" parent="1" source="dX2n7vGCm40rp93v6ol--28" target="dX2n7vGCm40rp93v6ol--42">
          <mxGeometry relative="1" as="geometry">
            <Array as="points">
              <mxPoint x="580" y="295" />
            </Array>
          </mxGeometry>
        </mxCell>
        <mxCell id="dX2n7vGCm40rp93v6ol--28" value="Gradient-Free" style="rounded=1;whiteSpace=wrap;html=1;" vertex="1" parent="1">
          <mxGeometry x="580" y="220" width="110" height="40" as="geometry" />
        </mxCell>
        <mxCell id="dX2n7vGCm40rp93v6ol--47" style="edgeStyle=orthogonalEdgeStyle;rounded=0;orthogonalLoop=1;jettySize=auto;html=1;entryX=0;entryY=0.5;entryDx=0;entryDy=0;exitX=0;exitY=0.5;exitDx=0;exitDy=0;" edge="1" parent="1" source="dX2n7vGCm40rp93v6ol--29" target="dX2n7vGCm40rp93v6ol--44">
          <mxGeometry relative="1" as="geometry">
            <Array as="points">
              <mxPoint x="710" y="295" />
            </Array>
          </mxGeometry>
        </mxCell>
        <mxCell id="dX2n7vGCm40rp93v6ol--48" style="edgeStyle=orthogonalEdgeStyle;rounded=0;orthogonalLoop=1;jettySize=auto;html=1;entryX=0;entryY=0.5;entryDx=0;entryDy=0;exitX=0;exitY=0.5;exitDx=0;exitDy=0;" edge="1" parent="1" source="dX2n7vGCm40rp93v6ol--29" target="dX2n7vGCm40rp93v6ol--45">
          <mxGeometry relative="1" as="geometry">
            <Array as="points">
              <mxPoint x="710" y="335" />
            </Array>
          </mxGeometry>
        </mxCell>
        <mxCell id="dX2n7vGCm40rp93v6ol--29" value="Gradient-Based" style="rounded=1;whiteSpace=wrap;html=1;" vertex="1" parent="1">
          <mxGeometry x="710" y="220" width="110" height="40" as="geometry" />
        </mxCell>
        <mxCell id="dX2n7vGCm40rp93v6ol--34" value="Sarsa" style="rounded=0;whiteSpace=wrap;html=1;" vertex="1" parent="1">
          <mxGeometry x="330" y="280" width="100" height="30" as="geometry" />
        </mxCell>
        <mxCell id="dX2n7vGCm40rp93v6ol--36" value="Q-Learning" style="rounded=0;whiteSpace=wrap;html=1;" vertex="1" parent="1">
          <mxGeometry x="460" y="280" width="100" height="30" as="geometry" />
        </mxCell>
        <mxCell id="dX2n7vGCm40rp93v6ol--37" value="DQN" style="rounded=0;whiteSpace=wrap;html=1;" vertex="1" parent="1">
          <mxGeometry x="460" y="320" width="100" height="30" as="geometry" />
        </mxCell>
        <mxCell id="dX2n7vGCm40rp93v6ol--42" value="SAMUEL" style="rounded=0;whiteSpace=wrap;html=1;" vertex="1" parent="1">
          <mxGeometry x="590" y="280" width="100" height="30" as="geometry" />
        </mxCell>
        <mxCell id="dX2n7vGCm40rp93v6ol--44" value="Policy Gradient" style="rounded=0;whiteSpace=wrap;html=1;" vertex="1" parent="1">
          <mxGeometry x="720" y="280" width="100" height="30" as="geometry" />
        </mxCell>
        <mxCell id="dX2n7vGCm40rp93v6ol--45" value="PPO" style="rounded=0;whiteSpace=wrap;html=1;" vertex="1" parent="1">
          <mxGeometry x="720" y="320" width="100" height="30" as="geometry" />
        </mxCell>
      </root>
    </mxGraphModel>
  </diagram>
</mxfile>
